<svg xmlns="http://www.w3.org/2000/svg"><symbol id="vk" viewBox="0 0 27 26"><path fill-rule="evenodd" clip-rule="evenodd" d="M25.06 1.349a.624.624 0 01.36.9c-.12.233-.25.46-.37.687a.49.49 0 01-.22.4A38.377 38.377 0 0121 9.026a.03.03 0 00-.02.021c1.67 1.183 5.66 4.2 3.71 5.9-1.02.893-3.98.743-5.12.237a8.776 8.776 0 01-1.831-1.255c-.98-.79-1.25-.744-2.13.1-1.13 1.085-1.76 1.772-3.43 1.575a10.71 10.71 0 01-5.35-2.613A21.618 21.618 0 01.01 1.749a.48.48 0 01.45-.573c.02 0 .02-.01.04-.015A16.937 16.937 0 015.29.99a.62.62 0 01.34.155.3.3 0 01.12.088c1.23 1.482 1.77 3.439 3.05 4.88.62.7.82.584.88-.377.029-.413.032-.827.01-1.24-.06-1.078-.44-2.023-.6-3.072a.535.535 0 01.07-.4.553.553 0 01.47-.47 44.786 44.786 0 014.58-.062.465.465 0 01.52.18.33.33 0 01.23.248c.18.942.24 1.903.18 2.86l-.03 1.385c-.01.263-.01.527-.01.79-.1.486.09.67.56.558.79.087 1-.584 1.39-1.2.23-.366.45-.743.66-1.125.5-.9.86-1.843 1.32-2.758a.46.46 0 01.37-.268.376.376 0 01.15-.047 23.642 23.642 0 015.51.234z"/></symbol><symbol id="facebook"><path fill-rule="evenodd" clip-rule="evenodd" d="M24.689 25.494h-7.04v-8.791h4.4v-4.395h-4.4V9.67a.885.885 0 01.88-.879h3.96v-4.4h-4.4a5.272 5.272 0 00-4.83 5.275v2.638h-3.52v4.394h3.52v8.792H2.709a1.763 1.763 0 01-1.76-1.759V1.758A1.763 1.763 0 012.71 0h21.98a1.762 1.762 0 011.75 1.758v21.977a1.762 1.762 0 01-1.75 1.759z"/></symbol><symbol id="instagram"><path fill-rule="evenodd" clip-rule="evenodd" d="M23.379 0H2.989a2.559 2.559 0 00-2.55 2.55v20.397a2.559 2.559 0 002.55 2.55h20.39a2.553 2.553 0 002.55-2.55v-20.4A2.552 2.552 0 0023.38 0zm-10.19 7.648a5.1 5.1 0 11-5.1 5.1 5.11 5.11 0 015.1-5.101v.001zm-9.56 15.3a.6.6 0 01-.64-.637V11.472h2.68a4.257 4.257 0 00-.13 1.275 7.645 7.645 0 0015.29 0 4.56 4.56 0 00-.12-1.275h2.67v10.835a.6.6 0 01-.63.637H3.629v.004zM23.379 5.74a.6.6 0 01-.63.637h-2.55a.602.602 0 01-.64-.637V3.19a.6.6 0 01.64-.636h2.55a.6.6 0 01.63.636v2.55z"/></symbol></svg>